<svg width="47" height="47" viewBox="0 0 47 47" fill="none" xmlns="http://www.w3.org/2000/svg">
<path fill-rule="evenodd" clip-rule="evenodd" d="M18.0926 3.18894C22.2782 2.19532 26.6386 2.19532 30.8242 3.18894C33.2332 1.66448 35.0908 0.952675 36.4606 0.648575C37.2144 0.481234 37.8179 0.438035 38.2785 0.450712C38.5082 0.457036 38.7003 0.477213 38.8553 0.501944C38.9328 0.514294 39.0007 0.527729 39.0592 0.541028C39.0884 0.547674 39.1152 0.554278 39.1397 0.560683L39.1746 0.570118L39.1907 0.574683L39.1984 0.576921L39.2022 0.578028C39.2041 0.578578 39.2059 0.579127 38.6609 2.41667L40.4225 1.6616C41.447 4.05177 41.6369 6.70512 40.9821 9.19902C42.6868 11.3653 43.6245 14.0508 43.625 16.8296V16.83C43.625 22.477 41.8976 26.2644 39.0271 28.6781C37.0983 30.3 34.7942 31.1768 32.5223 31.6776C32.5519 31.7527 32.5804 31.8284 32.6078 31.9045C33.0015 32.9978 33.1634 34.1608 33.0834 35.3195V42.6667C33.0834 43.7252 32.2253 44.5833 31.1667 44.5833C30.1082 44.5833 29.25 43.7252 29.25 42.6667V35.2492C29.25 35.199 29.252 35.1489 29.2559 35.0988C29.3065 34.4561 29.2197 33.81 29.0012 33.2034C28.7827 32.5968 28.4377 32.0437 27.9889 31.5808C27.4799 31.0557 27.314 30.2868 27.5613 29.5985C27.8086 28.9103 28.4259 28.4228 29.1527 28.3418C32.0542 28.0184 34.6703 27.3332 36.5601 25.7442C38.3566 24.2335 39.7916 21.6481 39.7917 16.8304M37.3058 4.38762C37.301 4.38867 37.2962 4.38973 37.2914 4.3908C36.3565 4.59834 34.7017 5.19116 32.2339 6.8454C31.773 7.15435 31.2009 7.2484 30.6653 7.10326C26.6007 6.00165 22.3161 6.00165 18.2514 7.10326C17.7159 7.2484 17.1437 7.15435 16.6828 6.8454C14.215 5.19116 12.5602 4.59834 11.6254 4.3908C11.6206 4.38973 11.6158 4.38867 11.611 4.38762C11.2406 5.89863 11.3283 7.49653 11.8791 8.97235C12.1355 9.65956 11.9773 10.4329 11.4715 10.9641C9.95432 12.5577 9.11332 14.677 9.12502 16.8773L9.12507 16.8875C9.12505 21.661 10.5563 24.2303 12.3567 25.7442C14.2532 27.3389 16.8769 28.0406 19.788 28.4021C20.5091 28.4917 21.1175 28.9813 21.3592 29.6666C21.6009 30.3519 21.4344 31.1149 20.929 31.6371C20.4856 32.0953 20.1436 32.6418 19.9253 33.241C19.7069 33.8401 19.6172 34.4786 19.662 35.1147C19.6651 35.1594 19.6667 35.2043 19.6667 35.2492V36.8736C19.6674 36.9029 19.6674 36.9321 19.6667 36.9612V42.6667C19.6667 43.7252 18.8086 44.5833 17.75 44.5833C16.6915 44.5833 15.8334 43.7252 15.8334 42.6667V39.3207C14.2882 39.5572 12.9285 39.5166 11.713 39.2321C9.86386 38.7993 8.5432 37.8475 7.53018 36.8345C7.03445 36.3387 6.60737 35.8233 6.23832 35.361C6.11293 35.2039 5.99834 35.0584 5.89006 34.9209C5.65924 34.6279 5.45711 34.3712 5.24022 34.1166C4.61146 33.3785 4.22143 33.1143 3.86852 33.0261C2.84158 32.7694 2.2172 31.7287 2.47394 30.7018C2.73068 29.6749 3.7713 29.0505 4.79824 29.3072C6.36199 29.6982 7.40947 30.7517 8.15831 31.6308C8.42498 31.9438 8.70041 32.2935 8.95268 32.6137C9.0506 32.738 9.14503 32.8578 9.2341 32.9694C9.57632 33.3981 9.89794 33.7811 10.2408 34.1239C10.9048 34.7879 11.6206 35.2736 12.5866 35.4996C13.3536 35.6792 14.3925 35.7213 15.8334 35.4279V35.3121C15.7624 34.1629 15.9292 33.0111 16.3235 31.9287C16.3504 31.8549 16.3784 31.7814 16.4073 31.7085C14.1321 31.1896 11.8218 30.3028 9.88964 28.6781C7.02381 26.2684 5.29274 22.5045 5.29171 16.8925M10.2559 2.41667C9.71085 0.579127 9.7127 0.578578 9.71456 0.578028L9.71834 0.576921L9.72605 0.574683L9.74216 0.570118L9.77706 0.560683C9.80152 0.554278 9.82836 0.547674 9.85759 0.541028C9.91608 0.527729 9.98399 0.514294 10.0614 0.501944C10.2165 0.477213 10.4085 0.457036 10.6383 0.450712C11.0989 0.438035 11.7024 0.481234 12.4562 0.648575C13.826 0.952675 15.6835 1.66448 18.0926 3.18894M10.2559 2.41667L9.71085 0.579127C9.16456 0.741162 8.71869 1.13786 8.49421 1.6616C7.46976 4.05176 7.27988 6.7051 7.93465 9.19899M37.3058 4.38762C37.6761 5.89863 37.5885 7.49653 37.0377 8.97235C36.7812 9.65955 36.9394 10.4328 37.4452 10.9641C38.9511 12.5459 39.7912 14.646 39.7917 16.83" fill="#E0E0E0"/>
</svg>
