<svg width="47" height="47" viewBox="0 0 47 47" fill="none" xmlns="http://www.w3.org/2000/svg">
<path fill-rule="evenodd" clip-rule="evenodd" d="M13.9167 6.25C9.68256 6.25 6.25008 9.68248 6.25008 13.9167V33.0833C6.25008 37.3175 9.68256 40.75 13.9167 40.75H33.0834C37.3176 40.75 40.7501 37.3175 40.7501 33.0833V13.9167C40.7501 9.68248 37.3176 6.25 33.0834 6.25H13.9167ZM2.41675 13.9167C2.41675 7.56539 7.56547 2.41667 13.9167 2.41667H33.0834C39.4347 2.41667 44.5834 7.56539 44.5834 13.9167V33.0833C44.5834 39.4346 39.4347 44.5833 33.0834 44.5833H13.9167C7.56547 44.5833 2.41675 39.4346 2.41675 33.0833V13.9167Z" fill="#E0E0E0"/>
<path fill-rule="evenodd" clip-rule="evenodd" d="M24.4263 17.7293C23.2299 17.5519 22.0081 17.7562 20.9346 18.3132C19.8611 18.8703 18.9905 19.7516 18.4468 20.8319C17.903 21.9122 17.7137 23.1365 17.9059 24.3306C18.098 25.5246 18.6618 26.6277 19.517 27.4829C20.3722 28.3381 21.4753 28.9019 22.6694 29.094C23.8634 29.2862 25.0877 29.0969 26.168 28.5532C27.2483 28.0094 28.1297 27.1389 28.6867 26.0654C29.2437 24.9918 29.4481 23.77 29.2707 22.5736C29.0897 21.3533 28.5211 20.2235 27.6487 19.3512C26.7764 18.4789 25.6466 17.9102 24.4263 17.7293ZM19.1691 14.9107C20.9583 13.9823 22.9947 13.6417 24.9886 13.9374C27.0225 14.239 28.9054 15.1867 30.3593 16.6406C31.8132 18.0945 32.7609 19.9775 33.0625 22.0114C33.3582 24.0053 33.0176 26.0417 32.0892 27.8309C31.1609 29.6201 29.6919 31.071 27.8914 31.9772C26.0909 32.8835 24.0505 33.1989 22.0604 32.8787C20.0702 32.5585 18.2317 31.6188 16.8064 30.1935C15.3811 28.7682 14.4415 26.9297 14.1212 24.9396C13.801 22.9494 14.1164 20.909 15.0227 19.1085C15.9289 17.308 17.3799 15.8391 19.1691 14.9107Z" fill="#E0E0E0"/>
<path fill-rule="evenodd" clip-rule="evenodd" d="M32.125 12.9583C32.125 11.8998 32.9831 11.0417 34.0417 11.0417H34.0608C35.1194 11.0417 35.9775 11.8998 35.9775 12.9583C35.9775 14.0169 35.1194 14.875 34.0608 14.875H34.0417C32.9831 14.875 32.125 14.0169 32.125 12.9583Z" fill="#E0E0E0"/>
</svg>
