<svg width="47" height="47" viewBox="0 0 47 47" fill="none" xmlns="http://www.w3.org/2000/svg">
<path fill-rule="evenodd" clip-rule="evenodd" d="M31.1667 17.75C28.625 17.75 26.1875 18.7597 24.3902 20.5569C22.593 22.3541 21.5833 24.7917 21.5833 27.3333V38.8333H25.4167V27.3333C25.4167 25.8083 26.0225 24.3458 27.1008 23.2675C28.1791 22.1891 29.6417 21.5833 31.1667 21.5833C32.6917 21.5833 34.1542 22.1891 35.2325 23.2675C36.3109 24.3458 36.9167 25.8083 36.9167 27.3333V38.8333H40.75V27.3333C40.75 24.7917 39.7403 22.3541 37.9431 20.5569C36.1459 18.7597 33.7083 17.75 31.1667 17.75ZM31.1667 13.9167C27.6083 13.9167 24.1958 15.3302 21.6797 17.8463C19.1635 20.3624 17.75 23.775 17.75 27.3333V40.75C17.75 41.8085 18.6081 42.6667 19.6667 42.6667H27.3333C28.3919 42.6667 29.25 41.8085 29.25 40.75V27.3333C29.25 26.825 29.4519 26.3375 29.8114 25.978C30.1708 25.6186 30.6583 25.4167 31.1667 25.4167C31.675 25.4167 32.1625 25.6186 32.522 25.978C32.8814 26.3375 33.0833 26.825 33.0833 27.3333V40.75C33.0833 41.8085 33.9415 42.6667 35 42.6667H42.6667C43.7252 42.6667 44.5833 41.8085 44.5833 40.75V27.3333C44.5833 23.775 43.1698 20.3624 40.6537 17.8463C38.1376 15.3302 34.725 13.9167 31.1667 13.9167Z" fill="#E0E0E0"/>
<path fill-rule="evenodd" clip-rule="evenodd" d="M2.41675 17.75C2.41675 16.6915 3.27487 15.8333 4.33341 15.8333H12.0001C13.0586 15.8333 13.9167 16.6915 13.9167 17.75V40.75C13.9167 41.8085 13.0586 42.6667 12.0001 42.6667H4.33341C3.27487 42.6667 2.41675 41.8085 2.41675 40.75V17.75ZM6.25008 19.6667V38.8333H10.0834V19.6667H6.25008Z" fill="#E0E0E0"/>
<path fill-rule="evenodd" clip-rule="evenodd" d="M8.16675 6.25C7.1082 6.25 6.25008 7.10812 6.25008 8.16667C6.25008 9.22521 7.1082 10.0833 8.16675 10.0833C9.22529 10.0833 10.0834 9.22521 10.0834 8.16667C10.0834 7.10812 9.22529 6.25 8.16675 6.25ZM2.41675 8.16667C2.41675 4.99103 4.99111 2.41667 8.16675 2.41667C11.3424 2.41667 13.9167 4.99103 13.9167 8.16667C13.9167 11.3423 11.3424 13.9167 8.16675 13.9167C4.99111 13.9167 2.41675 11.3423 2.41675 8.16667Z" fill="#E0E0E0"/>
</svg>
